# xmcd
#
# Track frame offsets: 
#        150
#        13332
#        33306
#        57787
#        76471
#        93280
#        114075
#        131876
#        153336
#        170293
#        191031
#        209755
#
# Disc length: 3069 seconds
#
# Revision: 2
# Processed by: cddbd v1.5.2PL0 Copyright (c) Steve Scherf et al.
# Submitted via: ExactAudioCopy v1.0b3
#
DISCID=9d0bfb0c
DTITLE=The Mick Fleetwood Band - Something Big
DYEAR=2004
DGENRE=Rock
TTITLE0=Bitter End
TTITLE1=Something Big
TTITLE2=Where the Wind Blows
TTITLE3=It's Only Money
TTITLE4=Walking With the Angels
TTITLE5=Making Other Plans
TTITLE6=These Walls
TTITLE7=Looking into You
TTITLE8=Passion
TTITLE9=No Borders
TTITLE10=Watching Over You
TTITLE11=Heaven Sent
EXTD=
EXTT0=
EXTT1=
EXTT2=
EXTT3=
EXTT4=
EXTT5=
EXTT6=
EXTT7=
EXTT8=
EXTT9=
EXTT10=
EXTT11=
PLAYORDER=
